# xmcd CD database file
# Copyright (C) 1996 Ti Kan
#
# Track frame offsets:
#	225
#	17092
#	39772
#	56216
#	79684
#	102968
#	119068
#	139976
#	158530
# Disc length: 2391 seconds
#
# Revision: 1
# Processed by: cddbd v1.4PL0 Copyright (c) Steve Scherf et al.
# Submitted via: CDCOPY 4.744
#
DISCID=71095409
DTITLE=Datura - Unnoticed Fellow Travellers
DYEAR=1900
DGENRE=
TTITLE0=Be Good
TTITLE1=If she dies tonight
TTITLE2=Death seems better
TTITLE3=Suffer
TTITLE4=Change
TTITLE5=For you
TTITLE6=Unique
TTITLE7=Immortal
TTITLE8=Weird thoughts
EXTD=
EXTT0=
EXTT1=
EXTT2=
EXTT3=
EXTT4=
EXTT5=
EXTT6=
EXTT7=
EXTT8=
PLAYORDER=
